<svg xmlns="http://www.w3.org/2000/svg" width="16.1" height="13" viewBox="0 0 16.1 13">
  <path id="Tracé_1104" data-name="Tracé 1104" d="M18.3,8.3v.4A9.256,9.256,0,0,1,9,18a8.447,8.447,0,0,1-5-1.5h.8a6.561,6.561,0,0,0,4.1-1.4,3.439,3.439,0,0,1-3.1-2.3c.2,0,.4.1.6.1a2.769,2.769,0,0,0,.9-.1A3.228,3.228,0,0,1,4.7,9.6h0a3.313,3.313,0,0,0,1.5.4A3.282,3.282,0,0,1,4.7,7.3a4.711,4.711,0,0,1,.4-1.7A9.032,9.032,0,0,0,11.9,9a1.7,1.7,0,0,1-.1-.7A3.329,3.329,0,0,1,15.1,5a3.492,3.492,0,0,1,2.4,1,5.387,5.387,0,0,0,2.1-.8A3.192,3.192,0,0,1,18.2,7a10.548,10.548,0,0,0,1.9-.5,7.637,7.637,0,0,1-1.8,1.8Z" transform="translate(-4 -5)" fill="#fff" fill-rule="evenodd"/>
</svg>
